# xmcd CD database file
#
# Track frame offsets:
#	150
#	15029
#	32391
#	48004
#	63729
#	78324
#	93180
#	105040
#	119077
#	137493
#	152642
#	169262
#	188433
#	201429
#	216747
#	227835
#	240672
#	253237
#	266131
#	280763
#
# Disc length: 3926 seconds
#
# Revision: 1
# Processed by: cddbd v1.5.1PL2 Copyright (c) Steve Scherf et al.
# Submitted via: CDex 1.51
#
DISCID=0c0f5414
DTITLE=Männer die unter die Haut gehen - Meine Zeit mit Dir CD1
DYEAR=2006
DGENRE=Country
TTITLE0=Meine Zeit Mit Dir - Horst Frank
TTITLE1=Ich Habe Diese Frau Geliebt - Pete "Wyoming" Bender
TTITLE2=Du Bist Nicht Mehr Wie Sonst Zu Mir - EICHBLATT.
TTITLE3=60 Jahre - Und Kein Bisschen Weise - Curd Jürgens
TTITLE4=Junge, Komm Bald Wieder - Freddy Quinn
TTITLE5=Ich Weiss (Maintenant Je Sais) (Album Version) - Heinz Rühmann
TTITLE6=Graue Schläfen - Johannes Heesters
TTITLE7=Rote Rosen, Rote Lippen, Roter Wein - Rene Carol
TTITLE8=Du Hast Nur Diese Eine Strasse - EICHBLATT.
TTITLE9=Das Kartenspiel - Bruce Low
TTITLE10=Der Brief - Friedrich Schütter
TTITLE11=Kalter Kaffee - Curd Jürgens
TTITLE12=Santa Lucia - Vico Torriani
TTITLE13=Lotte - Stephan Sulke
TTITLE14=Das Gibt's Nur Einmal - Peter Kreuder
TTITLE15=Mein Kleiner Sohn - Elmar Gunsch
TTITLE16=Du Fehlst Mir (Old Shatterhand Melodie) - Pierre Brice
TTITLE17=Berlin, Ick Lieb Dir Janz - Wolfgang Gruner
TTITLE18=Heut' Ist Der Schönste Tag In Meinem Leben - René Kollo
TTITLE19=Weise Rosen Vom Lago Maggiore - Robert Jung
EXTD=YEAR: 2006
EXTT0=
EXTT1=
EXTT2=
EXTT3=
EXTT4=
EXTT5=
EXTT6=
EXTT7=
EXTT8=
EXTT9=
EXTT10=
EXTT11=
EXTT12=
EXTT13=
EXTT14=
EXTT15=
EXTT16=
EXTT17=
EXTT18=
EXTT19=
PLAYORDER=
